<svg id="icons" xmlns="http://www.w3.org/2000/svg" viewBox="0 0 128 128"><defs><style>.cls-1{fill:#ffda6e;}.cls-2{fill:#f9b55a;}.cls-3{fill:#a5a7ad;}.cls-4{fill:#5282ef;}.cls-5{fill:#464649;}.cls-6{fill:#f4a742;}.cls-7{fill:#f23d38;}.cls-8{fill:none;stroke:#000;stroke-linecap:round;stroke-linejoin:round;stroke-width:2px;}</style></defs><title>paint-roller</title><path class="cls-1" d="M108.759,50C105.806,34.822,97.116,23.077,78.2,19.3a1,1,0,0,0-.9,1.692l29.77,29.9A1,1,0,0,0,108.759,50Z"/><path class="cls-1" d="M81.589,104.023,58.6,80.932a1,1,0,0,0-1.417,0l-2.59,2.6a1.94,1.94,0,0,0-.577,1.479,6.972,6.972,0,0,1-2.027,5.349L38.766,103.637a1,1,0,0,0,.265,1.6C45.465,108.283,53.659,110,64,110a65.365,65.365,0,0,0,19.314-2.585,1,1,0,0,0,.221-1.81A11.917,11.917,0,0,1,81.589,104.023Z"/><path class="cls-1" d="M36.518,74.885a7.406,7.406,0,0,1,5.315-2.043,1.972,1.972,0,0,0,1.485-.581l6.14-6.163A11.827,11.827,0,0,1,58.4,62.606a12.415,12.415,0,0,1,8.2,3.769L89.313,89.189a1,1,0,0,0,1.417,0l4.3-4.316a1,1,0,0,0-.527-1.687A11.476,11.476,0,0,1,88.409,80L46.714,38.13a11.067,11.067,0,0,1-.986-14.444,1.011,1.011,0,0,0,.182-.822,8.049,8.049,0,0,1-.16-1.267,1.007,1.007,0,0,0-1.292-.942C24.284,26.991,18,44,18,64c0,8.573,1.162,16.591,4.07,23.462a1,1,0,0,0,1.627.3Z"/><path class="cls-2" d="M67.68,67.46l3.93-3.93c.07-.07.13-.13.2-.19L46.71,38.13a10.99,10.99,0,0,1-3.08-9.35l-5.99,5.99A11.084,11.084,0,0,0,53.31,50.45L37.64,66.12a11.146,11.146,0,0,0-2.91,10.56l1.79-1.8a7.407,7.407,0,0,1,5.31-2.04,1.966,1.966,0,0,0,1.49-.58l6.14-6.16a11.818,11.818,0,0,1,8.94-3.49,12.34,12.34,0,0,1,8.2,3.77Z"/><path class="cls-2" d="M83.54,105.61a11.792,11.792,0,0,1-1.95-1.59l-9.53-9.57-7.61,7.59a11.056,11.056,0,0,0-3.25,7.91c.92.04,1.85.05,2.8.05a65.654,65.654,0,0,0,19.31-2.58A1,1,0,0,0,83.54,105.61Z"/><path class="cls-2" d="M94.5,83.19A11.5,11.5,0,0,1,88.41,80l-.94-.95c-.05.05-.1.11-.15.16l-3.99,3.98,5.98,6a1.008,1.008,0,0,0,1.42,0l4.3-4.32A.993.993,0,0,0,94.5,83.19Z"/><g id="_Group_" data-name="&lt;Group&gt;"><path class="cls-3" d="M56.49,19.82,52.3,24.03l-.7-.7a2.985,2.985,0,0,1,2.1-5.09,2.931,2.931,0,0,1,2.09.88Z"/><path class="cls-4" d="M23.66,106.11a1.974,1.974,0,0,1-2.79,0,2,2,0,0,1,0-2.81,1.974,1.974,0,0,1,2.79,0A2,2,0,0,1,23.66,106.11Z"/><path class="cls-4" d="M35.81,82.67l4.25-4.26a1.981,1.981,0,0,1,2.44-.28c.37.23.78.5,1.22.81a17.83,17.83,0,0,1,2.29,1.91,17.005,17.005,0,0,1,1.9,2.3c.31.44.58.86.81,1.23a1.98,1.98,0,0,1-.28,2.45L44.2,91.09a.219.219,0,0,0-.03-.05,34.878,34.878,0,0,0-3.74-4.58,35.155,35.155,0,0,0-4.56-3.76.076.076,0,0,0-.05-.02Z"/><path class="cls-5" d="M44.17,91.04a.219.219,0,0,1,.03.05L23.97,111.41a1.958,1.958,0,0,1-2.39.32,18.988,18.988,0,0,1-3.51-2.82,18.384,18.384,0,0,1-2.8-3.52,1.984,1.984,0,0,1,.31-2.4L35.81,82.67l.01.01a.076.076,0,0,1,.05.02,35.155,35.155,0,0,1,4.56,3.76A34.878,34.878,0,0,1,44.17,91.04ZM23.66,106.11a2,2,0,0,0,0-2.81,1.974,1.974,0,0,0-2.79,0,2,2,0,0,0,0,2.81A1.974,1.974,0,0,0,23.66,106.11Z"/><path class="cls-3" d="M110.98,74.54a6.983,6.983,0,0,1,0,9.82L94.91,100.49a6.9,6.9,0,0,1-9.78,0L58.59,73.84a.984.984,0,0,0-1.4,0l-9.28,9.31a17.005,17.005,0,0,0-1.9-2.3,17.83,17.83,0,0,0-2.29-1.91L53,69.63a6.9,6.9,0,0,1,9.78,0L89.32,96.29a1,1,0,0,0,1.4,0l16.07-16.14a1,1,0,0,0,0-1.4l-4.19-4.21,4.19-4.21Z"/><path class="cls-6" d="M88.57,39.4l-7.91,7.91a3,3,0,0,1-4.25-4.24l2.13-2.12a3,3,0,1,0-4.25-4.24l-4.95,4.95a3,3,0,0,1-4.24-4.25l4.24-4.24a3,3,0,0,1-4.24-4.24l6.54-6.54Z"/><path class="cls-7" d="M108.83,59.75a6.06,6.06,0,0,1,0,8.53l-2.04,2.05-4.19,4.21-2.05,2.05a5.981,5.981,0,0,1-8.48,0L50.26,34.6a6.03,6.03,0,0,1,0-8.52l2.04-2.05,4.19-4.21,2.05-2.06a5.981,5.981,0,0,1,8.48,0l4.62,4.63L65.1,28.93a3,3,0,0,0,4.24,4.24L65.1,37.41a3,3,0,0,0,4.24,4.25l4.95-4.95a3,3,0,1,1,4.25,4.24l-2.13,2.12a3,3,0,0,0,4.25,4.24l7.91-7.91Z"/><path class="cls-8" d="M56.49,19.82l2.05-2.06a5.981,5.981,0,0,1,8.48,0l4.62,4.63L88.57,39.4l20.26,20.35a6.06,6.06,0,0,1,0,8.53l-2.04,2.05-4.19,4.21-2.05,2.05a5.981,5.981,0,0,1-8.48,0L50.26,34.6a6.03,6.03,0,0,1,0-8.52l2.04-2.05"/><path class="cls-8" d="M44.2,91.09l4.24-4.26a1.98,1.98,0,0,0,.28-2.45c-.23-.37-.5-.79-.81-1.23a17.005,17.005,0,0,0-1.9-2.3,17.83,17.83,0,0,0-2.29-1.91c-.44-.31-.85-.58-1.22-.81a1.981,1.981,0,0,0-2.44.28l-4.25,4.26L15.58,102.99a1.984,1.984,0,0,0-.31,2.4,18.384,18.384,0,0,0,2.8,3.52,18.988,18.988,0,0,0,3.51,2.82,1.958,1.958,0,0,0,2.39-.32Z"/><path class="cls-8" d="M35.82,82.68a.076.076,0,0,1,.05.02,35.155,35.155,0,0,1,4.56,3.76,34.878,34.878,0,0,1,3.74,4.58.219.219,0,0,1,.03.05"/><path class="cls-8" d="M23.66,106.11a1.974,1.974,0,0,1-2.79,0,2,2,0,0,1,0-2.81,1.974,1.974,0,0,1,2.79,0A2,2,0,0,1,23.66,106.11Z"/><path class="cls-8" d="M106.79,70.33l4.19,4.21a6.983,6.983,0,0,1,0,9.82L94.91,100.49a6.9,6.9,0,0,1-9.78,0L58.59,73.84a.984.984,0,0,0-1.4,0l-9.28,9.31"/><path class="cls-8" d="M102.6,74.54l4.19,4.21a1,1,0,0,1,0,1.4L90.72,96.29a1,1,0,0,1-1.4,0L62.78,69.63a6.9,6.9,0,0,0-9.78,0l-9.28,9.31"/><path class="cls-8" d="M52.3,24.03l-.7-.7a2.985,2.985,0,0,1,2.1-5.09,2.931,2.931,0,0,1,2.09.88l.7.7Z"/><path class="cls-8" d="M71.64,22.39,65.1,28.93a3,3,0,0,0,4.24,4.24L65.1,37.41a3,3,0,0,0,4.24,4.25l4.95-4.95a3,3,0,1,1,4.25,4.24l-2.13,2.12a3,3,0,0,0,4.25,4.24l7.91-7.91"/></g></svg>