<svg version="1.2" baseProfile="tiny-ps" xmlns="http://www.w3.org/2000/svg" viewBox="0 0 120 120" width="120" height="120">
	<title>paint-brush(1)-svg</title>
	<style>
		tspan { white-space:pre }
		.s0 { fill: #ffda6e } 
		.s1 { fill: #f9b55a } 
		.s2 { fill: #c16f25 } 
		.s3 { fill: #cbccd3 } 
		.s4 { fill: #464649 } 
		.s5 { fill: #5282ef } 
		.s6 { fill: none;stroke: #000000;stroke-linecap:round;stroke-linejoin:round;stroke-width: 2 } 
	</style>
	<path id="Layer" class="s0" d="m27.54 77.5c-0.78 0.56-1.54 1.13-2.3 1.7c-0.76 0.58-1.51 1.17-2.26 1.76c-0.75 0.6-1.48 1.2-2.21 1.82c-0.73 0.62-1.45 1.24-2.16 1.88c-3.3-7.13-4.6-15.58-4.6-24.66c0-25.41 10.12-46 46-46c0.72 0 1.44 0.01 2.16 0.03c0.72 0.02 1.44 0.05 2.16 0.08c0.72 0.04 1.44 0.08 2.15 0.14c0.72 0.06 1.43 0.12 2.15 0.2c-0.72 1.01-1.46 2-2.22 2.98c-0.76 0.98-1.54 1.95-2.33 2.9c-0.8 0.95-1.61 1.89-2.44 2.8c-0.83 0.92-1.68 1.82-2.55 2.71l-11.22 11.21l-2.09 2.1c-4.63 4.63-3.05 9.4-1.21 14.92c1.77 5.3 1.47 7.23-1.59 10.29c-1.19 1.2-2.41 2.37-3.65 3.52c-1.24 1.15-2.5 2.27-3.79 3.37c-1.29 1.1-2.6 2.17-3.93 3.21c-1.33 1.04-2.68 2.06-4.06 3.04l0 0z" />
	<path id="Layer" class="s0" d="m103.68 68.98c0.21 0.02 0.42 0.02 0.63 0.01c0.21-0.01 0.42-0.04 0.63-0.07c0.21-0.04 0.41-0.09 0.61-0.15c-2.3 21.21-13.9 37.24-45.55 37.24c-10.17 0-18.27-1.66-24.65-4.61c0.63-0.71 1.26-1.43 1.87-2.16c0.62-0.73 1.22-1.47 1.82-2.21c0.6-0.74 1.18-1.5 1.76-2.26c0.58-0.76 1.14-1.53 1.7-2.3c0.98-1.37 2-2.73 3.04-4.06c1.04-1.33 2.11-2.64 3.21-3.93c1.1-1.29 2.22-2.55 3.37-3.79c1.15-1.24 2.32-2.46 3.52-3.65c2.35-2.35 3.89-2.67 5.21-2.67c0.43 0.02 0.87 0.06 1.3 0.12c0.43 0.06 0.86 0.13 1.29 0.22c0.43 0.09 0.85 0.2 1.27 0.32c0.42 0.12 0.83 0.26 1.24 0.42c3.56 1.19 5.9 1.83 8.06 1.83c0.64 0 1.29-0.07 1.92-0.2c0.63-0.13 1.24-0.33 1.83-0.59c0.59-0.26 1.15-0.58 1.67-0.96c0.52-0.38 1-0.81 1.44-1.28l2.12-2.11l11.2-11.21c0.28-0.28 0.57-0.56 0.86-0.84c-0.17 3.99 2.9 7.71 8.04 8.8c0.21 0.04 0.41 0.07 0.62 0.09z" />
	<path id="Layer" class="s1" d="m88.42 81.42c-8.15 1.77-11.79-0.7-11.39-4.65c0.36-0.13 0.71-0.29 1.06-0.46c0.34-0.17 0.67-0.37 1-0.58c0.32-0.21 0.63-0.44 0.92-0.69c0.29-0.25 0.57-0.51 0.84-0.79l2.12-2.11l5.92-5.92c6.22 1.65 10.09 12.92-0.46 15.21z" />
	<path id="Layer" class="s1" d="m76.27 101.9c-0.09 0.22-0.18 0.45-0.27 0.67c-0.09 0.22-0.19 0.44-0.29 0.66c-0.1 0.22-0.2 0.44-0.31 0.65c-0.11 0.22-0.21 0.43-0.33 0.65c-1.24 0.26-2.48 0.48-3.73 0.67c-1.25 0.19-2.5 0.35-3.76 0.47c-1.26 0.12-2.52 0.21-3.78 0.27c-1.26 0.06-2.53 0.08-3.79 0.07c-1.12 0-2.22-0.02-3.29-0.07h-0.01c-0.2-0.34-0.39-0.68-0.57-1.04c-7.65-15.16 26.19-17.94 20.14-2.99z" />
	<path id="Layer" class="s1" d="m22.71 59.28c4.39 6.82 10.25 7.58 11.71-1.52c1.46-9.1-17.85-8.03-11.71 1.52z" />
	<path id="Layer" class="s1" d="m31.42 20.71c1.41-0.83 2.85-1.58 4.34-2.25c1.49-0.67 3.01-1.27 4.55-1.78c1.55-0.51 3.12-0.94 4.72-1.28c1.59-0.34 3.21-0.6 4.83-0.78c0.03 0.14 0.06 0.27 0.08 0.41c0.02 0.14 0.04 0.28 0.05 0.42c0.01 0.14 0.01 0.28 0.01 0.42c0 0.14-0.01 0.28-0.03 0.42c-0.98 9.94-8.77 15.96-18.55 4.43l0 0z" />
	<g id="_Group_">
		<path id="Layer" fill-rule="evenodd" class="s2" d="m51.4 40.58l28.02 28.02l-2.11 2.1c-2.1 2.1-3.5 2.1-9.8 0c-6.3-2.1-10.51-2.1-15.41 2.8c-12.61 12.61-14.01 18.21-23.11 27.32c-7.7 7.7-16.11 9.1-17.51 7.7c-1.4-1.4 0-9.81 7.7-17.51c9.11-9.1 14.71-10.5 27.32-23.11c4.9-4.9 4.9-9.11 2.8-15.41c-2.1-6.3-2.1-7.7 0-9.8l2.1-2.11zm-25.27 54.89c-0.46-1.11-1.54-1.83-2.74-1.83c-1.2 0-2.28 0.72-2.74 1.83c-0.46 1.11-0.21 2.39 0.64 3.24c0.28 0.28 0.6 0.49 0.96 0.64c0.36 0.15 0.75 0.23 1.14 0.23c0.39 0 0.78-0.08 1.14-0.23c0.36-0.15 0.69-0.37 0.96-0.64c0.85-0.85 1.1-2.13 0.64-3.24z" />
		<path id="Layer" class="s3" d="m90.62 57.39l-11.2 11.21l-28.02-28.02l11.21-11.2l28.01 28.01v0z" />
		<path id="Layer" class="s4" d="m96.56 52.01c-1.99 1.65-4.02 3.46-5.94 5.38l-28.01-28.01c1.29-1.34 2.55-2.71 3.78-4.11c1.22-1.4 2.41-2.83 3.57-4.29c1.15-1.46 2.27-2.95 3.35-4.46c1.08-1.51 2.12-3.06 3.12-4.62c0.13-0.2 0.29-0.38 0.49-0.52c0.19-0.14 0.41-0.25 0.64-0.31c0.23-0.06 0.47-0.09 0.71-0.06c0.24 0.02 0.47 0.09 0.68 0.19c0.53 0.25 1.05 0.52 1.56 0.79c0.52 0.27 1.03 0.55 1.54 0.84c0.51 0.29 1.01 0.58 1.51 0.89c0.5 0.3 0.99 0.62 1.48 0.94c0.11 0.08 0.21 0.17 0.29 0.29c0.08 0.11 0.13 0.24 0.15 0.38c0.02 0.14 0.02 0.27-0.01 0.41c-0.03 0.13-0.09 0.26-0.17 0.37l-10.77 13.99l14.1-11.93c0.09-0.07 0.18-0.13 0.29-0.17c0.11-0.04 0.22-0.06 0.33-0.06c0.11 0 0.23 0.01 0.33 0.05c0.11 0.04 0.21 0.09 0.3 0.16c0.49 0.39 0.98 0.78 1.46 1.18c0.48 0.4 0.96 0.81 1.43 1.22c0.47 0.41 0.94 0.83 1.4 1.26c0.46 0.43 0.91 0.86 1.36 1.29c-3.95 1.02-6.54 3.2-5.59 7c-4.2 1.4-7.7 6.3-5.6 9.8c-2.1 4.91 4.2 8.41 7.7 4.91c-1.59 3.72 1.24 6.22 4.54 7.22z" />
		<path id="Layer" class="s5" d="m108.8 41.06c0.11 0.21 0.17 0.45 0.19 0.68c0.02 0.24 0 0.48-0.06 0.71c-0.06 0.23-0.17 0.45-0.31 0.64c-0.14 0.19-0.32 0.36-0.52 0.49c-1 0.64-1.99 1.3-2.98 1.98c-0.98 0.67-1.96 1.36-2.92 2.07c-0.96 0.7-1.91 1.42-2.86 2.15c-0.94 0.73-1.87 1.48-2.79 2.23c-3.3-1-6.13-3.5-4.54-7.22c-3.5 3.5-9.8 0-7.7-4.91c-2.1-3.5 1.4-8.4 5.6-9.8c-0.95-3.8 1.64-5.98 5.59-7c0.24 0.23 0.47 0.46 0.71 0.7c1.51 1.5 2.87 3 4.09 4.44c0.08 0.09 0.14 0.2 0.18 0.32c0.04 0.12 0.06 0.24 0.05 0.36c-0.01 0.12-0.03 0.24-0.08 0.36c-0.05 0.11-0.12 0.22-0.21 0.3l-9.63 9.62l11.79-6.87c0.11-0.06 0.22-0.1 0.34-0.12c0.12-0.02 0.25-0.02 0.37 0.01c0.12 0.03 0.23 0.07 0.34 0.14c0.1 0.07 0.19 0.15 0.26 0.25c0.48 0.67 0.95 1.35 1.41 2.03c0.45 0.69 0.89 1.39 1.32 2.09c0.42 0.71 0.83 1.42 1.23 2.15c0.39 0.72 0.77 1.46 1.13 2.2l0 0z" />
		<path id="Layer" class="s5" d="m103.32 55.43c-4.92 2.4-3.89 7.57 0 8.52c3.89 0.95 5.84-11.36 0-8.52z" />
		<path id="Layer" class="s6" d="m79.42 68.6l-2.11 2.1c-2.1 2.1-3.5 2.1-9.8 0c-6.3-2.1-10.51-2.1-15.41 2.8c-12.61 12.61-14.01 18.21-23.11 27.32c-7.7 7.7-16.11 9.1-17.51 7.7c-1.4-1.4 0-9.81 7.7-17.51c9.11-9.1 14.71-10.5 27.32-23.11c4.9-4.9 4.9-9.11 2.8-15.41c-2.1-6.3-2.1-7.7 0-9.8l2.1-2.11" />
		<path id="Layer" class="s6" d="m25.49 98.71c-1.16 1.16-3.04 1.16-4.2 0c-1.16-1.16-1.16-3.04 0-4.2c1.16-1.16 3.04-1.16 4.2 0c1.16 1.16 1.16 3.04 0 4.2z" />
		<path id="Layer" class="s6" d="m90.62 57.39l-11.2 11.21l-28.02-28.02l11.21-11.2l28.01 28.01v0z" />
		<g id="Layer" style="opacity: .2">
			<path id="Layer" class="s6" d="m59.8 32.18l28.01 28.01" />
			<path id="Layer" class="s6" d="m54.2 37.78l28.02 28.02" />
		</g>
		<path id="Layer" class="s6" d="m62.61 29.38c1.29-1.34 2.55-2.71 3.78-4.11c1.22-1.4 2.41-2.83 3.57-4.29c1.15-1.46 2.27-2.95 3.35-4.46c1.08-1.51 2.12-3.06 3.12-4.62c0.13-0.2 0.29-0.38 0.49-0.52c0.19-0.14 0.41-0.25 0.64-0.31c0.23-0.06 0.47-0.09 0.71-0.06c0.24 0.02 0.47 0.09 0.68 0.19c0.53 0.25 1.05 0.52 1.56 0.79c0.52 0.27 1.03 0.55 1.54 0.84c0.51 0.29 1.01 0.58 1.51 0.89c0.5 0.3 0.99 0.62 1.48 0.94c0.11 0.08 0.21 0.17 0.29 0.29c0.08 0.11 0.13 0.24 0.15 0.38c0.02 0.14 0.02 0.27-0.01 0.41c-0.03 0.13-0.09 0.26-0.17 0.37l-10.77 13.99l14.1-11.93c0.09-0.07 0.18-0.13 0.29-0.17c0.11-0.04 0.22-0.06 0.33-0.06c0.11 0 0.23 0.01 0.33 0.05c0.11 0.04 0.21 0.09 0.3 0.16c0.49 0.39 0.98 0.78 1.46 1.18c0.48 0.4 0.96 0.81 1.43 1.22c0.47 0.41 0.94 0.83 1.4 1.26c0.46 0.43 0.91 0.86 1.36 1.29c0.24 0.23 0.47 0.46 0.71 0.7c1.51 1.5 2.87 3 4.09 4.44c0.08 0.09 0.14 0.2 0.18 0.32c0.04 0.12 0.06 0.24 0.05 0.36c-0.01 0.12-0.03 0.24-0.08 0.36c-0.05 0.11-0.12 0.22-0.21 0.3l-9.63 9.62l11.79-6.87c0.11-0.06 0.22-0.1 0.34-0.12c0.12-0.02 0.25-0.02 0.37 0.01c0.12 0.03 0.23 0.07 0.34 0.14c0.1 0.07 0.19 0.15 0.26 0.25c0.48 0.67 0.95 1.35 1.41 2.03c0.45 0.69 0.89 1.39 1.32 2.09c0.42 0.71 0.83 1.42 1.23 2.15c0.39 0.72 0.77 1.46 1.13 2.2c0.11 0.21 0.17 0.45 0.19 0.68c0.02 0.24 0 0.48-0.06 0.71c-0.06 0.23-0.17 0.45-0.31 0.64c-0.14 0.19-0.32 0.36-0.52 0.49c-1 0.64-1.99 1.3-2.98 1.98c-0.98 0.67-1.96 1.36-2.92 2.07c-0.96 0.7-1.91 1.42-2.86 2.15c-0.94 0.73-1.87 1.48-2.79 2.23c-1.99 1.65-4.02 3.46-5.94 5.38" />
		<path id="Layer" class="s6" d="m103.32 55.43c-4.92 2.4-3.89 7.57 0 8.52c3.89 0.95 5.84-11.36 0-8.52z" />
		<path id="Layer" class="s6" d="m96.56 52.01c-3.3-1-6.13-3.5-4.54-7.22c-3.5 3.5-9.8 0-7.7-4.91c-2.1-3.5 1.4-8.4 5.6-9.8c-0.95-3.8 1.64-5.98 5.59-7" />
	</g>
</svg>